<svg width="24" height="24" viewBox="0 0 24 24" fill="none" xmlns="http://www.w3.org/2000/svg">
<path fill-rule="evenodd" clip-rule="evenodd" d="M11.075 5.675C11.075 5.30221 11.3772 5 11.75 5C12.1228 5 12.425 5.30221 12.425 5.675V11.075H17.825C18.1978 11.075 18.5 11.3772 18.5 11.75C18.5 12.1228 18.1978 12.425 17.825 12.425H12.425V17.825C12.425 18.1978 12.1228 18.5 11.75 18.5C11.3772 18.5 11.075 18.1978 11.075 17.825V12.425H5.675C5.30221 12.425 5 12.1228 5 11.75C5 11.3772 5.30221 11.075 5.675 11.075H11.075V5.675Z" fill="#0C48A1"/>
</svg>
