<svg width="24" height="24" viewBox="0 0 24 24" fill="none" xmlns="http://www.w3.org/2000/svg">
<path fill-rule="evenodd" clip-rule="evenodd" d="M5.25 5.25C4.2835 5.25 3.5 6.0335 3.5 7V19.2463C3.5 20.2128 4.2835 20.9963 5.25 20.9963H18.75C19.7165 20.9963 20.5 20.2128 20.5 19.2463V7C20.5 6.0335 19.7165 5.25 18.75 5.25H18.4865C18.3632 4.12393 17.4089 3.24774 16.25 3.24774C15.0911 3.24774 14.1368 4.12393 14.0135 5.25H9.98652C9.86318 4.12393 8.90891 3.24774 7.75 3.24774C6.59109 3.24774 5.63682 4.12393 5.51348 5.25H5.25ZM5 10.25H19V19.2463C19 19.3844 18.8881 19.4963 18.75 19.4963H5.25C5.11193 19.4963 5 19.3844 5 19.2463V10.25ZM17 7.00391C17 7.41812 16.6642 7.75391 16.25 7.75391C15.8358 7.75391 15.5 7.41812 15.5 7.00391V6.75V5.49774C15.5 5.41093 15.5148 5.32756 15.5419 5.25C15.6442 4.95752 15.9226 4.74774 16.25 4.74774C16.5774 4.74774 16.8558 4.95752 16.9581 5.25C16.9852 5.32756 17 5.41093 17 5.49774V6.75V7.00391ZM8.5 7.00391C8.5 7.41812 8.16421 7.75391 7.75 7.75391C7.33579 7.75391 7 7.41812 7 7.00391V6.75V5.49774C7 5.41093 7.01475 5.32756 7.04188 5.25C7.1442 4.95752 7.4226 4.74774 7.75 4.74774C8.0774 4.74774 8.3558 4.95752 8.45812 5.25C8.48525 5.32756 8.5 5.41093 8.5 5.49774V6.75V7.00391Z" fill="#0C48A1"/>
</svg>
