<svg width="20" height="20" viewBox="0 0 20 20" fill="none" xmlns="http://www.w3.org/2000/svg">
<path fill-rule="evenodd" clip-rule="evenodd" d="M4.28569 5.9524H3.8095C3.41501 5.9524 3.09521 5.63261 3.09521 5.23812C3.09521 4.84363 3.41501 4.52383 3.8095 4.52383H16.1905C16.5849 4.52383 16.9047 4.84363 16.9047 5.23812C16.9047 5.63261 16.5849 5.9524 16.1905 5.9524H15.7143V15.9524C15.7143 17.0044 14.8615 17.8572 13.8095 17.8572H6.19045C5.13848 17.8572 4.28569 17.0044 4.28569 15.9524V5.9524ZM5.71426 5.9524V15.9524C5.71426 16.2154 5.92746 16.4286 6.19045 16.4286H13.8095C14.0725 16.4286 14.2857 16.2154 14.2857 15.9524V5.9524H5.71426ZM9.28163 8.57094L9.28569 14.2852C9.28597 14.6797 8.9664 14.9997 8.57191 15C8.17742 15.0003 7.8574 14.6807 7.85712 14.2862L7.85306 8.57196C7.85278 8.17747 8.17235 7.85745 8.56684 7.85717C8.96133 7.85689 9.28135 8.17646 9.28163 8.57094ZM12.1428 14.2852L12.1388 8.57094C12.1385 8.17646 11.8185 7.85689 11.424 7.85717C11.0295 7.85745 10.7099 8.17747 10.7102 8.57196L10.7143 14.2862C10.7145 14.6807 11.0346 15.0003 11.4291 15C11.8235 14.9997 12.1431 14.6797 12.1428 14.2852Z" fill="#0C48A1"/>
<path fill-rule="evenodd" clip-rule="evenodd" d="M11.4285 1.90479H8.57141C7.25644 1.90479 6.19045 2.97077 6.19045 4.28574V5.9524H13.8095V4.28574C13.8095 2.97077 12.7435 1.90479 11.4285 1.90479ZM7.61902 4.28574C7.61902 3.75975 8.04542 3.33336 8.57141 3.33336H11.4285C11.9545 3.33336 12.3809 3.75975 12.3809 4.28574V4.52383H7.61902V4.28574Z" fill="#0C48A1"/>
</svg>
