<svg width="24" height="24" viewBox="0 0 24 24" fill="none" xmlns="http://www.w3.org/2000/svg">
<path fill-rule="evenodd" clip-rule="evenodd" d="M5.25 6V10.5C5.25 17.5 11.4615 19.75 12 19.75C12.5385 19.75 18.75 17.5 18.75 10.5V6C18.75 6 13 4 12 4C11 4 5.25 6 5.25 6ZM12 7.125C11.5168 7.125 11.125 7.51675 11.125 8C11.125 8.48325 11.5168 8.875 12 8.875C12.4832 8.875 12.875 8.48325 12.875 8C12.875 7.51675 12.4832 7.125 12 7.125ZM12 16.375C11.5168 16.375 11.125 15.9832 11.125 15.5V11.5C11.125 11.0168 11.5168 10.625 12 10.625C12.4832 10.625 12.875 11.0168 12.875 11.5V15.5C12.875 15.9832 12.4832 16.375 12 16.375Z" fill="#F5BB2C"/>
</svg>
