<svg width="24" height="24" viewBox="0 0 24 24" fill="none" xmlns="http://www.w3.org/2000/svg">
<path fill-rule="evenodd" clip-rule="evenodd" d="M13.6481 3.88522C12.9195 2.60975 11.0805 2.60975 10.3519 3.88522C9.89176 4.69078 8.91672 5.04567 8.04643 4.72434C6.66847 4.21558 5.25968 5.3977 5.52143 6.84308C5.68674 7.75594 5.16794 8.65454 4.29471 8.96781C2.91211 9.46381 2.59276 11.2749 3.72234 12.2139C4.43576 12.8069 4.61594 13.8288 4.14838 14.63C3.40806 15.8987 4.32759 17.4914 5.79646 17.4846C6.72416 17.4803 7.51902 18.1473 7.67589 19.0616C7.92427 20.5094 9.65241 21.1384 10.7733 20.189C11.4812 19.5894 12.5188 19.5894 13.2267 20.189C14.3476 21.1384 16.0757 20.5094 16.3241 19.0616C16.4809 18.1473 17.2758 17.4803 18.2035 17.4846C19.6724 17.4914 20.5919 15.8987 19.8516 14.63C19.384 13.8288 19.5642 12.8069 20.2776 12.2139C21.4072 11.2749 21.0879 9.46381 19.7052 8.96781C18.832 8.65454 18.3132 7.75594 18.4785 6.84308C18.7403 5.3977 17.3315 4.21558 15.9535 4.72434C15.0832 5.04567 14.1082 4.69078 13.6481 3.88522ZM16.3687 10.1187C16.7104 9.77697 16.7104 9.22296 16.3687 8.88125C16.027 8.53954 15.473 8.53954 15.1313 8.88125L10.75 13.2625L8.86874 11.3812C8.52703 11.0395 7.97301 11.0395 7.6313 11.3812C7.28959 11.723 7.28959 12.277 7.6313 12.6187L10.1313 15.1187C10.473 15.4604 11.027 15.4604 11.3687 15.1187L16.3687 10.1187Z" fill="#27C07D"/>
<path fill-rule="evenodd" clip-rule="evenodd" d="M16.3687 8.88128C16.7104 9.22299 16.7104 9.77701 16.3687 10.1187L11.3687 15.1187C11.027 15.4604 10.473 15.4604 10.1313 15.1187L7.63128 12.6187C7.28957 12.277 7.28957 11.723 7.63128 11.3813C7.97299 11.0396 8.52701 11.0396 8.86872 11.3813L10.75 13.2626L15.1313 8.88128C15.473 8.53957 16.027 8.53957 16.3687 8.88128Z" fill="white"/>
</svg>
